<?xml version="1.0" standalone="no"?>
<!DOCTYPE svg PUBLIC "-//W3C//DTD SVG 20010904//EN"
 "http://www.w3.org/TR/2001/REC-SVG-20010904/DTD/svg10.dtd">
<svg version="1.0" xmlns="http://www.w3.org/2000/svg"
 width="2048.000000pt" height="2048.000000pt" viewBox="0 0 2048.000000 2048.000000"
 preserveAspectRatio="xMidYMid meet">
<metadata>
Created by potrace 1.14, written by Peter Selinger 2001-2017
</metadata>
<g transform="translate(0.000000,2048.000000) scale(0.100000,-0.100000)"
fill="#000000" stroke="none">
<path d="M9875 20473 c-662 -32 -1082 -81 -1646 -193 -1294 -258 -2486 -745
-3608 -1477 -250 -163 -651 -459 -892 -660 -799 -664 -1449 -1384 -2017 -2234
-936 -1404 -1502 -3000 -1666 -4699 -32 -326 -40 -536 -41 -965 0 -602 31
-1021 116 -1579 374 -2455 1662 -4718 3599 -6323 939 -777 2054 -1402 3191
-1788 1093 -371 2192 -555 3320 -555 1286 0 2518 231 3729 698 1567 605 3030
1655 4121 2957 740 884 1316 1859 1724 2925 786 2049 888 4322 290 6447 -536
1905 -1627 3621 -3145 4948 -815 712 -1842 1344 -2846 1750 -1108 449 -2189
683 -3433 745 -183 9 -639 11 -796 3z m885 -864 c967 -44 2037 -279 2960 -649
2355 -944 4233 -2802 5203 -5150 592 -1434 818 -3040 646 -4600 -215 -1959
-1037 -3789 -2359 -5255 -1527 -1694 -3623 -2778 -5879 -3040 -672 -78 -1451
-79 -2116 -4 -1157 130 -2162 427 -3191 942 -1764 883 -3239 2346 -4141 4107
-837 1634 -1175 3484 -972 5315 110 991 365 1927 769 2820 613 1356 1535 2543
2705 3482 726 582 1587 1078 2460 1416 435 168 861 297 1355 411 241 55 589
114 890 150 585 71 1021 85 1670 55z"/>
<path d="M10162 17059 c-146 -24 -277 -140 -328 -289 -18 -54 -19 -144 -19
-3330 0 -3191 0 -3276 19 -3330 38 -111 109 -196 204 -244 42 -21 2298 -927
2642 -1062 74 -28 491 -195 925 -370 l790 -318 110 -1 c103 0 114 2 177 32 94
44 160 109 206 202 36 73 37 78 36 186 0 120 -12 160 -74 251 -70 100 13 65
-2157 933 l-2018 807 -5 3100 c-5 2851 -6 3102 -22 3140 -66 165 -180 264
-337 294 -61 11 -75 11 -149 -1z"/>
</g>
</svg>
